# xmcd
#
# Track frame offsets:
# 150
# 2392
# 19600
# 22527
# 30565
# 35352
# 43837
# 45990
# 56565
# 60222
# 70805
# 73142
# 83167
# 85842
# 94110
# 96317
# 109487
# 112125
# 124402
# 125387
# 141640
# 145620
# 160057
# 162012
# 172667
# 174812
# 188917
# 190210
# 198307
# 200000
# 212325
# 215895
# 227652
# 230062
# 240077
#
# Disc length: 3379 seconds
#
#
# Revision: 0
# Processed by: cddbd v1.5.2PL0 Copyright (c) Steve Scherf et al.
# Submitted via: FreeRIP 2.951 
#
DISCID=d30d3123
DTITLE=The Stamps Quartet - They Gave the World a Smile
DYEAR=1941
DGENRE=Country
TTITLE0=Introduction
TTITLE1=What a Savior
TTITLE2=Introduction
TTITLE3=Give the World a Smile
TTITLE4=Introduction
TTITLE5=I Want to Be More Like Jesus
TTITLE6=Introduction
TTITLE7=Precious Memories
TTITLE8=Introduction
TTITLE9=No Tears in Heaven
TTITLE10=Introduction
TTITLE11=Where Could I Go (But to the Lord)
TTITLE12=Introduction
TTITLE13=Turn Your Radio On
TTITLE14=Introduction
TTITLE15=Further Along
TTITLE16=Introduction
TTITLE17=On the Jericho Road
TTITLE18=Introduction
TTITLE19=Low Singin' Bass
TTITLE20=Introduction
TTITLE21=Where We'll Never Grow Old
TTITLE22=Introduction
TTITLE23=We'll Soon Be Done With Troubles and Trials
TTITLE24=Introduction
TTITLE25=The Eastern Gate
TTITLE26=Introduction
TTITLE27=I'll Fly Away
TTITLE28=Introduction
TTITLE29=Where the Roses Never Fade
TTITLE30=Introduction
TTITLE31=I'll Meet You in the Morning
TTITLE32=Introduction
TTITLE33=When All God's Singers Get Home
TTITLE34=Guide and Keep Us
EXTD=
EXTT0=
EXTT1=
EXTT2=
EXTT3=
EXTT4=
EXTT5=
EXTT6=
EXTT7=
EXTT8=
EXTT9=
EXTT10=
EXTT11=
EXTT12=
EXTT13=
EXTT14=
EXTT15=
EXTT16=
EXTT17=
EXTT18=
EXTT19=
EXTT20=
EXTT21=
EXTT22=
EXTT23=
EXTT24=
EXTT25=
EXTT26=
EXTT27=
EXTT28=
EXTT29=
EXTT30=
EXTT31=
EXTT32=
EXTT33=
EXTT34=
PLAYORDER=
